<?xml version="1.0" encoding="utf-8" standalone="no"?>
<!DOCTYPE svg PUBLIC "-//W3C//DTD SVG 1.1//EN"
  "http://www.w3.org/Graphics/SVG/1.1/DTD/svg11.dtd">
<!-- Created with matplotlib (https://matplotlib.org/) -->
<svg height="345.6pt" version="1.1" viewBox="0 0 460.8 345.6" width="460.8pt" xmlns="http://www.w3.org/2000/svg" xmlns:xlink="http://www.w3.org/1999/xlink">
 <defs>
  <style type="text/css">
*{stroke-linecap:butt;stroke-linejoin:round;white-space:pre;}
  </style>
 </defs>
 <g id="figure_1">
  <g id="patch_1">
   <path d="M 0 345.6 
L 460.8 345.6 
L 460.8 0 
L 0 0 
z
" style="fill:#ffffff;"/>
  </g>
  <g id="axes_1">
   <g id="patch_2">
    <path d="M 57.6 307.584 
L 414.72 307.584 
L 414.72 41.472 
L 57.6 41.472 
z
" style="fill:#ffffff;"/>
   </g>
   <g id="matplotlib.axis_1">
    <g id="xtick_1">
     <g id="line2d_1">
      <defs>
       <path d="M 0 0 
L 0 3.5 
" id="m8033db9bf8" style="stroke:#000000;stroke-width:0.8;"/>
      </defs>
      <g>
       <use style="stroke:#000000;stroke-width:0.8;" x="73.832727" xlink:href="#m8033db9bf8" y="307.584"/>
      </g>
     </g>
     <g id="text_1">
      <!-- 0 -->
      <defs>
       <path d="M 31.78125 66.40625 
Q 24.171875 66.40625 20.328125 58.90625 
Q 16.5 51.421875 16.5 36.375 
Q 16.5 21.390625 20.328125 13.890625 
Q 24.171875 6.390625 31.78125 6.390625 
Q 39.453125 6.390625 43.28125 13.890625 
Q 47.125 21.390625 47.125 36.375 
Q 47.125 51.421875 43.28125 58.90625 
Q 39.453125 66.40625 31.78125 66.40625 
z
M 31.78125 74.21875 
Q 44.046875 74.21875 50.515625 64.515625 
Q 56.984375 54.828125 56.984375 36.375 
Q 56.984375 17.96875 50.515625 8.265625 
Q 44.046875 -1.421875 31.78125 -1.421875 
Q 19.53125 -1.421875 13.0625 8.265625 
Q 6.59375 17.96875 6.59375 36.375 
Q 6.59375 54.828125 13.0625 64.515625 
Q 19.53125 74.21875 31.78125 74.21875 
z
" id="DejaVuSans-48"/>
      </defs>
      <g transform="translate(70.651477 322.182437)scale(0.1 -0.1)">
       <use xlink:href="#DejaVuSans-48"/>
      </g>
     </g>
    </g>
    <g id="xtick_2">
     <g id="line2d_2">
      <g>
       <use style="stroke:#000000;stroke-width:0.8;" x="119.430276" xlink:href="#m8033db9bf8" y="307.584"/>
      </g>
     </g>
     <g id="text_2">
      <!-- 500 -->
      <defs>
       <path d="M 10.796875 72.90625 
L 49.515625 72.90625 
L 49.515625 64.59375 
L 19.828125 64.59375 
L 19.828125 46.734375 
Q 21.96875 47.46875 24.109375 47.828125 
Q 26.265625 48.1875 28.421875 48.1875 
Q 40.625 48.1875 47.75 41.5 
Q 54.890625 34.8125 54.890625 23.390625 
Q 54.890625 11.625 47.5625 5.09375 
Q 40.234375 -1.421875 26.90625 -1.421875 
Q 22.3125 -1.421875 17.546875 -0.640625 
Q 12.796875 0.140625 7.71875 1.703125 
L 7.71875 11.625 
Q 12.109375 9.234375 16.796875 8.0625 
Q 21.484375 6.890625 26.703125 6.890625 
Q 35.15625 6.890625 40.078125 11.328125 
Q 45.015625 15.765625 45.015625 23.390625 
Q 45.015625 31 40.078125 35.4375 
Q 35.15625 39.890625 26.703125 39.890625 
Q 22.75 39.890625 18.8125 39.015625 
Q 14.890625 38.140625 10.796875 36.28125 
z
" id="DejaVuSans-53"/>
      </defs>
      <g transform="translate(109.886526 322.182437)scale(0.1 -0.1)">
       <use xlink:href="#DejaVuSans-53"/>
       <use x="63.623047" xlink:href="#DejaVuSans-48"/>
       <use x="127.246094" xlink:href="#DejaVuSans-48"/>
      </g>
     </g>
    </g>
    <g id="xtick_3">
     <g id="line2d_3">
      <g>
       <use style="stroke:#000000;stroke-width:0.8;" x="165.027824" xlink:href="#m8033db9bf8" y="307.584"/>
      </g>
     </g>
     <g id="text_3">
      <!-- 1000 -->
      <defs>
       <path d="M 12.40625 8.296875 
L 28.515625 8.296875 
L 28.515625 63.921875 
L 10.984375 60.40625 
L 10.984375 69.390625 
L 28.421875 72.90625 
L 38.28125 72.90625 
L 38.28125 8.296875 
L 54.390625 8.296875 
L 54.390625 0 
L 12.40625 0 
z
" id="DejaVuSans-49"/>
      </defs>
      <g transform="translate(152.302824 322.182437)scale(0.1 -0.1)">
       <use xlink:href="#DejaVuSans-49"/>
       <use x="63.623047" xlink:href="#DejaVuSans-48"/>
       <use x="127.246094" xlink:href="#DejaVuSans-48"/>
       <use x="190.869141" xlink:href="#DejaVuSans-48"/>
      </g>
     </g>
    </g>
    <g id="xtick_4">
     <g id="line2d_4">
      <g>
       <use style="stroke:#000000;stroke-width:0.8;" x="210.625373" xlink:href="#m8033db9bf8" y="307.584"/>
      </g>
     </g>
     <g id="text_4">
      <!-- 1500 -->
      <g transform="translate(197.900373 322.182437)scale(0.1 -0.1)">
       <use xlink:href="#DejaVuSans-49"/>
       <use x="63.623047" xlink:href="#DejaVuSans-53"/>
       <use x="127.246094" xlink:href="#DejaVuSans-48"/>
       <use x="190.869141" xlink:href="#DejaVuSans-48"/>
      </g>
     </g>
    </g>
    <g id="xtick_5">
     <g id="line2d_5">
      <g>
       <use style="stroke:#000000;stroke-width:0.8;" x="256.222921" xlink:href="#m8033db9bf8" y="307.584"/>
      </g>
     </g>
     <g id="text_5">
      <!-- 2000 -->
      <defs>
       <path d="M 19.1875 8.296875 
L 53.609375 8.296875 
L 53.609375 0 
L 7.328125 0 
L 7.328125 8.296875 
Q 12.9375 14.109375 22.625 23.890625 
Q 32.328125 33.6875 34.8125 36.53125 
Q 39.546875 41.84375 41.421875 45.53125 
Q 43.3125 49.21875 43.3125 52.78125 
Q 43.3125 58.59375 39.234375 62.25 
Q 35.15625 65.921875 28.609375 65.921875 
Q 23.96875 65.921875 18.8125 64.3125 
Q 13.671875 62.703125 7.8125 59.421875 
L 7.8125 69.390625 
Q 13.765625 71.78125 18.9375 73 
Q 24.125 74.21875 28.421875 74.21875 
Q 39.75 74.21875 46.484375 68.546875 
Q 53.21875 62.890625 53.21875 53.421875 
Q 53.21875 48.921875 51.53125 44.890625 
Q 49.859375 40.875 45.40625 35.40625 
Q 44.1875 33.984375 37.640625 27.21875 
Q 31.109375 20.453125 19.1875 8.296875 
z
" id="DejaVuSans-50"/>
      </defs>
      <g transform="translate(243.497921 322.182437)scale(0.1 -0.1)">
       <use xlink:href="#DejaVuSans-50"/>
       <use x="63.623047" xlink:href="#DejaVuSans-48"/>
       <use x="127.246094" xlink:href="#DejaVuSans-48"/>
       <use x="190.869141" xlink:href="#DejaVuSans-48"/>
      </g>
     </g>
    </g>
    <g id="xtick_6">
     <g id="line2d_6">
      <g>
       <use style="stroke:#000000;stroke-width:0.8;" x="301.82047" xlink:href="#m8033db9bf8" y="307.584"/>
      </g>
     </g>
     <g id="text_6">
      <!-- 2500 -->
      <g transform="translate(289.09547 322.182437)scale(0.1 -0.1)">
       <use xlink:href="#DejaVuSans-50"/>
       <use x="63.623047" xlink:href="#DejaVuSans-53"/>
       <use x="127.246094" xlink:href="#DejaVuSans-48"/>
       <use x="190.869141" xlink:href="#DejaVuSans-48"/>
      </g>
     </g>
    </g>
    <g id="xtick_7">
     <g id="line2d_7">
      <g>
       <use style="stroke:#000000;stroke-width:0.8;" x="347.418018" xlink:href="#m8033db9bf8" y="307.584"/>
      </g>
     </g>
     <g id="text_7">
      <!-- 3000 -->
      <defs>
       <path d="M 40.578125 39.3125 
Q 47.65625 37.796875 51.625 33 
Q 55.609375 28.21875 55.609375 21.1875 
Q 55.609375 10.40625 48.1875 4.484375 
Q 40.765625 -1.421875 27.09375 -1.421875 
Q 22.515625 -1.421875 17.65625 -0.515625 
Q 12.796875 0.390625 7.625 2.203125 
L 7.625 11.71875 
Q 11.71875 9.328125 16.59375 8.109375 
Q 21.484375 6.890625 26.8125 6.890625 
Q 36.078125 6.890625 40.9375 10.546875 
Q 45.796875 14.203125 45.796875 21.1875 
Q 45.796875 27.640625 41.28125 31.265625 
Q 36.765625 34.90625 28.71875 34.90625 
L 20.21875 34.90625 
L 20.21875 43.015625 
L 29.109375 43.015625 
Q 36.375 43.015625 40.234375 45.921875 
Q 44.09375 48.828125 44.09375 54.296875 
Q 44.09375 59.90625 40.109375 62.90625 
Q 36.140625 65.921875 28.71875 65.921875 
Q 24.65625 65.921875 20.015625 65.03125 
Q 15.375 64.15625 9.8125 62.3125 
L 9.8125 71.09375 
Q 15.4375 72.65625 20.34375 73.4375 
Q 25.25 74.21875 29.59375 74.21875 
Q 40.828125 74.21875 47.359375 69.109375 
Q 53.90625 64.015625 53.90625 55.328125 
Q 53.90625 49.265625 50.4375 45.09375 
Q 46.96875 40.921875 40.578125 39.3125 
z
" id="DejaVuSans-51"/>
      </defs>
      <g transform="translate(334.693018 322.182437)scale(0.1 -0.1)">
       <use xlink:href="#DejaVuSans-51"/>
       <use x="63.623047" xlink:href="#DejaVuSans-48"/>
       <use x="127.246094" xlink:href="#DejaVuSans-48"/>
       <use x="190.869141" xlink:href="#DejaVuSans-48"/>
      </g>
     </g>
    </g>
    <g id="xtick_8">
     <g id="line2d_8">
      <g>
       <use style="stroke:#000000;stroke-width:0.8;" x="393.015567" xlink:href="#m8033db9bf8" y="307.584"/>
      </g>
     </g>
     <g id="text_8">
      <!-- 3500 -->
      <g transform="translate(380.290567 322.182437)scale(0.1 -0.1)">
       <use xlink:href="#DejaVuSans-51"/>
       <use x="63.623047" xlink:href="#DejaVuSans-53"/>
       <use x="127.246094" xlink:href="#DejaVuSans-48"/>
       <use x="190.869141" xlink:href="#DejaVuSans-48"/>
      </g>
     </g>
    </g>
    <g id="text_9">
     <!-- Batches processed -->
     <defs>
      <path d="M 19.671875 34.8125 
L 19.671875 8.109375 
L 35.5 8.109375 
Q 43.453125 8.109375 47.28125 11.40625 
Q 51.125 14.703125 51.125 21.484375 
Q 51.125 28.328125 47.28125 31.5625 
Q 43.453125 34.8125 35.5 34.8125 
z
M 19.671875 64.796875 
L 19.671875 42.828125 
L 34.28125 42.828125 
Q 41.5 42.828125 45.03125 45.53125 
Q 48.578125 48.25 48.578125 53.8125 
Q 48.578125 59.328125 45.03125 62.0625 
Q 41.5 64.796875 34.28125 64.796875 
z
M 9.8125 72.90625 
L 35.015625 72.90625 
Q 46.296875 72.90625 52.390625 68.21875 
Q 58.5 63.53125 58.5 54.890625 
Q 58.5 48.1875 55.375 44.234375 
Q 52.25 40.28125 46.1875 39.3125 
Q 53.46875 37.75 57.5 32.78125 
Q 61.53125 27.828125 61.53125 20.40625 
Q 61.53125 10.640625 54.890625 5.3125 
Q 48.25 0 35.984375 0 
L 9.8125 0 
z
" id="DejaVuSans-66"/>
      <path d="M 34.28125 27.484375 
Q 23.390625 27.484375 19.1875 25 
Q 14.984375 22.515625 14.984375 16.5 
Q 14.984375 11.71875 18.140625 8.90625 
Q 21.296875 6.109375 26.703125 6.109375 
Q 34.1875 6.109375 38.703125 11.40625 
Q 43.21875 16.703125 43.21875 25.484375 
L 43.21875 27.484375 
z
M 52.203125 31.203125 
L 52.203125 0 
L 43.21875 0 
L 43.21875 8.296875 
Q 40.140625 3.328125 35.546875 0.953125 
Q 30.953125 -1.421875 24.3125 -1.421875 
Q 15.921875 -1.421875 10.953125 3.296875 
Q 6 8.015625 6 15.921875 
Q 6 25.140625 12.171875 29.828125 
Q 18.359375 34.515625 30.609375 34.515625 
L 43.21875 34.515625 
L 43.21875 35.40625 
Q 43.21875 41.609375 39.140625 45 
Q 35.0625 48.390625 27.6875 48.390625 
Q 23 48.390625 18.546875 47.265625 
Q 14.109375 46.140625 10.015625 43.890625 
L 10.015625 52.203125 
Q 14.9375 54.109375 19.578125 55.046875 
Q 24.21875 56 28.609375 56 
Q 40.484375 56 46.34375 49.84375 
Q 52.203125 43.703125 52.203125 31.203125 
z
" id="DejaVuSans-97"/>
      <path d="M 18.3125 70.21875 
L 18.3125 54.6875 
L 36.8125 54.6875 
L 36.8125 47.703125 
L 18.3125 47.703125 
L 18.3125 18.015625 
Q 18.3125 11.328125 20.140625 9.421875 
Q 21.96875 7.515625 27.59375 7.515625 
L 36.8125 7.515625 
L 36.8125 0 
L 27.59375 0 
Q 17.1875 0 13.234375 3.875 
Q 9.28125 7.765625 9.28125 18.015625 
L 9.28125 47.703125 
L 2.6875 47.703125 
L 2.6875 54.6875 
L 9.28125 54.6875 
L 9.28125 70.21875 
z
" id="DejaVuSans-116"/>
      <path d="M 48.78125 52.59375 
L 48.78125 44.1875 
Q 44.96875 46.296875 41.140625 47.34375 
Q 37.3125 48.390625 33.40625 48.390625 
Q 24.65625 48.390625 19.8125 42.84375 
Q 14.984375 37.3125 14.984375 27.296875 
Q 14.984375 17.28125 19.8125 11.734375 
Q 24.65625 6.203125 33.40625 6.203125 
Q 37.3125 6.203125 41.140625 7.25 
Q 44.96875 8.296875 48.78125 10.40625 
L 48.78125 2.09375 
Q 45.015625 0.34375 40.984375 -0.53125 
Q 36.96875 -1.421875 32.421875 -1.421875 
Q 20.0625 -1.421875 12.78125 6.34375 
Q 5.515625 14.109375 5.515625 27.296875 
Q 5.515625 40.671875 12.859375 48.328125 
Q 20.21875 56 33.015625 56 
Q 37.15625 56 41.109375 55.140625 
Q 45.0625 54.296875 48.78125 52.59375 
z
" id="DejaVuSans-99"/>
      <path d="M 54.890625 33.015625 
L 54.890625 0 
L 45.90625 0 
L 45.90625 32.71875 
Q 45.90625 40.484375 42.875 44.328125 
Q 39.84375 48.1875 33.796875 48.1875 
Q 26.515625 48.1875 22.3125 43.546875 
Q 18.109375 38.921875 18.109375 30.90625 
L 18.109375 0 
L 9.078125 0 
L 9.078125 75.984375 
L 18.109375 75.984375 
L 18.109375 46.1875 
Q 21.34375 51.125 25.703125 53.5625 
Q 30.078125 56 35.796875 56 
Q 45.21875 56 50.046875 50.171875 
Q 54.890625 44.34375 54.890625 33.015625 
z
" id="DejaVuSans-104"/>
      <path d="M 56.203125 29.59375 
L 56.203125 25.203125 
L 14.890625 25.203125 
Q 15.484375 15.921875 20.484375 11.0625 
Q 25.484375 6.203125 34.421875 6.203125 
Q 39.59375 6.203125 44.453125 7.46875 
Q 49.3125 8.734375 54.109375 11.28125 
L 54.109375 2.78125 
Q 49.265625 0.734375 44.1875 -0.34375 
Q 39.109375 -1.421875 33.890625 -1.421875 
Q 20.796875 -1.421875 13.15625 6.1875 
Q 5.515625 13.8125 5.515625 26.8125 
Q 5.515625 40.234375 12.765625 48.109375 
Q 20.015625 56 32.328125 56 
Q 43.359375 56 49.78125 48.890625 
Q 56.203125 41.796875 56.203125 29.59375 
z
M 47.21875 32.234375 
Q 47.125 39.59375 43.09375 43.984375 
Q 39.0625 48.390625 32.421875 48.390625 
Q 24.90625 48.390625 20.390625 44.140625 
Q 15.875 39.890625 15.1875 32.171875 
z
" id="DejaVuSans-101"/>
      <path d="M 44.28125 53.078125 
L 44.28125 44.578125 
Q 40.484375 46.53125 36.375 47.5 
Q 32.28125 48.484375 27.875 48.484375 
Q 21.1875 48.484375 17.84375 46.4375 
Q 14.5 44.390625 14.5 40.28125 
Q 14.5 37.15625 16.890625 35.375 
Q 19.28125 33.59375 26.515625 31.984375 
L 29.59375 31.296875 
Q 39.15625 29.25 43.1875 25.515625 
Q 47.21875 21.78125 47.21875 15.09375 
Q 47.21875 7.46875 41.1875 3.015625 
Q 35.15625 -1.421875 24.609375 -1.421875 
Q 20.21875 -1.421875 15.453125 -0.5625 
Q 10.6875 0.296875 5.421875 2 
L 5.421875 11.28125 
Q 10.40625 8.6875 15.234375 7.390625 
Q 20.0625 6.109375 24.8125 6.109375 
Q 31.15625 6.109375 34.5625 8.28125 
Q 37.984375 10.453125 37.984375 14.40625 
Q 37.984375 18.0625 35.515625 20.015625 
Q 33.0625 21.96875 24.703125 23.78125 
L 21.578125 24.515625 
Q 13.234375 26.265625 9.515625 29.90625 
Q 5.8125 33.546875 5.8125 39.890625 
Q 5.8125 47.609375 11.28125 51.796875 
Q 16.75 56 26.8125 56 
Q 31.78125 56 36.171875 55.265625 
Q 40.578125 54.546875 44.28125 53.078125 
z
" id="DejaVuSans-115"/>
      <path id="DejaVuSans-32"/>
      <path d="M 18.109375 8.203125 
L 18.109375 -20.796875 
L 9.078125 -20.796875 
L 9.078125 54.6875 
L 18.109375 54.6875 
L 18.109375 46.390625 
Q 20.953125 51.265625 25.265625 53.625 
Q 29.59375 56 35.59375 56 
Q 45.5625 56 51.78125 48.09375 
Q 58.015625 40.1875 58.015625 27.296875 
Q 58.015625 14.40625 51.78125 6.484375 
Q 45.5625 -1.421875 35.59375 -1.421875 
Q 29.59375 -1.421875 25.265625 0.953125 
Q 20.953125 3.328125 18.109375 8.203125 
z
M 48.6875 27.296875 
Q 48.6875 37.203125 44.609375 42.84375 
Q 40.53125 48.484375 33.40625 48.484375 
Q 26.265625 48.484375 22.1875 42.84375 
Q 18.109375 37.203125 18.109375 27.296875 
Q 18.109375 17.390625 22.1875 11.75 
Q 26.265625 6.109375 33.40625 6.109375 
Q 40.53125 6.109375 44.609375 11.75 
Q 48.6875 17.390625 48.6875 27.296875 
z
" id="DejaVuSans-112"/>
      <path d="M 41.109375 46.296875 
Q 39.59375 47.171875 37.8125 47.578125 
Q 36.03125 48 33.890625 48 
Q 26.265625 48 22.1875 43.046875 
Q 18.109375 38.09375 18.109375 28.8125 
L 18.109375 0 
L 9.078125 0 
L 9.078125 54.6875 
L 18.109375 54.6875 
L 18.109375 46.1875 
Q 20.953125 51.171875 25.484375 53.578125 
Q 30.03125 56 36.53125 56 
Q 37.453125 56 38.578125 55.875 
Q 39.703125 55.765625 41.0625 55.515625 
z
" id="DejaVuSans-114"/>
      <path d="M 30.609375 48.390625 
Q 23.390625 48.390625 19.1875 42.75 
Q 14.984375 37.109375 14.984375 27.296875 
Q 14.984375 17.484375 19.15625 11.84375 
Q 23.34375 6.203125 30.609375 6.203125 
Q 37.796875 6.203125 41.984375 11.859375 
Q 46.1875 17.53125 46.1875 27.296875 
Q 46.1875 37.015625 41.984375 42.703125 
Q 37.796875 48.390625 30.609375 48.390625 
z
M 30.609375 56 
Q 42.328125 56 49.015625 48.375 
Q 55.71875 40.765625 55.71875 27.296875 
Q 55.71875 13.875 49.015625 6.21875 
Q 42.328125 -1.421875 30.609375 -1.421875 
Q 18.84375 -1.421875 12.171875 6.21875 
Q 5.515625 13.875 5.515625 27.296875 
Q 5.515625 40.765625 12.171875 48.375 
Q 18.84375 56 30.609375 56 
z
" id="DejaVuSans-111"/>
      <path d="M 45.40625 46.390625 
L 45.40625 75.984375 
L 54.390625 75.984375 
L 54.390625 0 
L 45.40625 0 
L 45.40625 8.203125 
Q 42.578125 3.328125 38.25 0.953125 
Q 33.9375 -1.421875 27.875 -1.421875 
Q 17.96875 -1.421875 11.734375 6.484375 
Q 5.515625 14.40625 5.515625 27.296875 
Q 5.515625 40.1875 11.734375 48.09375 
Q 17.96875 56 27.875 56 
Q 33.9375 56 38.25 53.625 
Q 42.578125 51.265625 45.40625 46.390625 
z
M 14.796875 27.296875 
Q 14.796875 17.390625 18.875 11.75 
Q 22.953125 6.109375 30.078125 6.109375 
Q 37.203125 6.109375 41.296875 11.75 
Q 45.40625 17.390625 45.40625 27.296875 
Q 45.40625 37.203125 41.296875 42.84375 
Q 37.203125 48.484375 30.078125 48.484375 
Q 22.953125 48.484375 18.875 42.84375 
Q 14.796875 37.203125 14.796875 27.296875 
z
" id="DejaVuSans-100"/>
     </defs>
     <g transform="translate(188.943594 335.860562)scale(0.1 -0.1)">
      <use xlink:href="#DejaVuSans-66"/>
      <use x="68.603516" xlink:href="#DejaVuSans-97"/>
      <use x="129.882812" xlink:href="#DejaVuSans-116"/>
      <use x="169.091797" xlink:href="#DejaVuSans-99"/>
      <use x="224.072266" xlink:href="#DejaVuSans-104"/>
      <use x="287.451172" xlink:href="#DejaVuSans-101"/>
      <use x="348.974609" xlink:href="#DejaVuSans-115"/>
      <use x="401.074219" xlink:href="#DejaVuSans-32"/>
      <use x="432.861328" xlink:href="#DejaVuSans-112"/>
      <use x="496.337891" xlink:href="#DejaVuSans-114"/>
      <use x="537.419922" xlink:href="#DejaVuSans-111"/>
      <use x="598.601562" xlink:href="#DejaVuSans-99"/>
      <use x="653.582031" xlink:href="#DejaVuSans-101"/>
      <use x="715.105469" xlink:href="#DejaVuSans-115"/>
      <use x="767.205078" xlink:href="#DejaVuSans-115"/>
      <use x="819.304688" xlink:href="#DejaVuSans-101"/>
      <use x="880.828125" xlink:href="#DejaVuSans-100"/>
     </g>
    </g>
   </g>
   <g id="matplotlib.axis_2">
    <g id="ytick_1">
     <g id="line2d_9">
      <defs>
       <path d="M 0 0 
L -3.5 0 
" id="mf4d510e9a0" style="stroke:#000000;stroke-width:0.8;"/>
      </defs>
      <g>
       <use style="stroke:#000000;stroke-width:0.8;" x="57.6" xlink:href="#mf4d510e9a0" y="295.236902"/>
      </g>
     </g>
     <g id="text_10">
      <!-- 0.5 -->
      <defs>
       <path d="M 10.6875 12.40625 
L 21 12.40625 
L 21 0 
L 10.6875 0 
z
" id="DejaVuSans-46"/>
      </defs>
      <g transform="translate(34.696875 299.036121)scale(0.1 -0.1)">
       <use xlink:href="#DejaVuSans-48"/>
       <use x="63.623047" xlink:href="#DejaVuSans-46"/>
       <use x="95.410156" xlink:href="#DejaVuSans-53"/>
      </g>
     </g>
    </g>
    <g id="ytick_2">
     <g id="line2d_10">
      <g>
       <use style="stroke:#000000;stroke-width:0.8;" x="57.6" xlink:href="#mf4d510e9a0" y="264.276449"/>
      </g>
     </g>
     <g id="text_11">
      <!-- 1.0 -->
      <g transform="translate(34.696875 268.075668)scale(0.1 -0.1)">
       <use xlink:href="#DejaVuSans-49"/>
       <use x="63.623047" xlink:href="#DejaVuSans-46"/>
       <use x="95.410156" xlink:href="#DejaVuSans-48"/>
      </g>
     </g>
    </g>
    <g id="ytick_3">
     <g id="line2d_11">
      <g>
       <use style="stroke:#000000;stroke-width:0.8;" x="57.6" xlink:href="#mf4d510e9a0" y="233.315996"/>
      </g>
     </g>
     <g id="text_12">
      <!-- 1.5 -->
      <g transform="translate(34.696875 237.115215)scale(0.1 -0.1)">
       <use xlink:href="#DejaVuSans-49"/>
       <use x="63.623047" xlink:href="#DejaVuSans-46"/>
       <use x="95.410156" xlink:href="#DejaVuSans-53"/>
      </g>
     </g>
    </g>
    <g id="ytick_4">
     <g id="line2d_12">
      <g>
       <use style="stroke:#000000;stroke-width:0.8;" x="57.6" xlink:href="#mf4d510e9a0" y="202.355543"/>
      </g>
     </g>
     <g id="text_13">
      <!-- 2.0 -->
      <g transform="translate(34.696875 206.154762)scale(0.1 -0.1)">
       <use xlink:href="#DejaVuSans-50"/>
       <use x="63.623047" xlink:href="#DejaVuSans-46"/>
       <use x="95.410156" xlink:href="#DejaVuSans-48"/>
      </g>
     </g>
    </g>
    <g id="ytick_5">
     <g id="line2d_13">
      <g>
       <use style="stroke:#000000;stroke-width:0.8;" x="57.6" xlink:href="#mf4d510e9a0" y="171.395091"/>
      </g>
     </g>
     <g id="text_14">
      <!-- 2.5 -->
      <g transform="translate(34.696875 175.194309)scale(0.1 -0.1)">
       <use xlink:href="#DejaVuSans-50"/>
       <use x="63.623047" xlink:href="#DejaVuSans-46"/>
       <use x="95.410156" xlink:href="#DejaVuSans-53"/>
      </g>
     </g>
    </g>
    <g id="ytick_6">
     <g id="line2d_14">
      <g>
       <use style="stroke:#000000;stroke-width:0.8;" x="57.6" xlink:href="#mf4d510e9a0" y="140.434638"/>
      </g>
     </g>
     <g id="text_15">
      <!-- 3.0 -->
      <g transform="translate(34.696875 144.233856)scale(0.1 -0.1)">
       <use xlink:href="#DejaVuSans-51"/>
       <use x="63.623047" xlink:href="#DejaVuSans-46"/>
       <use x="95.410156" xlink:href="#DejaVuSans-48"/>
      </g>
     </g>
    </g>
    <g id="ytick_7">
     <g id="line2d_15">
      <g>
       <use style="stroke:#000000;stroke-width:0.8;" x="57.6" xlink:href="#mf4d510e9a0" y="109.474185"/>
      </g>
     </g>
     <g id="text_16">
      <!-- 3.5 -->
      <g transform="translate(34.696875 113.273404)scale(0.1 -0.1)">
       <use xlink:href="#DejaVuSans-51"/>
       <use x="63.623047" xlink:href="#DejaVuSans-46"/>
       <use x="95.410156" xlink:href="#DejaVuSans-53"/>
      </g>
     </g>
    </g>
    <g id="ytick_8">
     <g id="line2d_16">
      <g>
       <use style="stroke:#000000;stroke-width:0.8;" x="57.6" xlink:href="#mf4d510e9a0" y="78.513732"/>
      </g>
     </g>
     <g id="text_17">
      <!-- 4.0 -->
      <defs>
       <path d="M 37.796875 64.3125 
L 12.890625 25.390625 
L 37.796875 25.390625 
z
M 35.203125 72.90625 
L 47.609375 72.90625 
L 47.609375 25.390625 
L 58.015625 25.390625 
L 58.015625 17.1875 
L 47.609375 17.1875 
L 47.609375 0 
L 37.796875 0 
L 37.796875 17.1875 
L 4.890625 17.1875 
L 4.890625 26.703125 
z
" id="DejaVuSans-52"/>
      </defs>
      <g transform="translate(34.696875 82.312951)scale(0.1 -0.1)">
       <use xlink:href="#DejaVuSans-52"/>
       <use x="63.623047" xlink:href="#DejaVuSans-46"/>
       <use x="95.410156" xlink:href="#DejaVuSans-48"/>
      </g>
     </g>
    </g>
    <g id="ytick_9">
     <g id="line2d_17">
      <g>
       <use style="stroke:#000000;stroke-width:0.8;" x="57.6" xlink:href="#mf4d510e9a0" y="47.553279"/>
      </g>
     </g>
     <g id="text_18">
      <!-- 4.5 -->
      <g transform="translate(34.696875 51.352498)scale(0.1 -0.1)">
       <use xlink:href="#DejaVuSans-52"/>
       <use x="63.623047" xlink:href="#DejaVuSans-46"/>
       <use x="95.410156" xlink:href="#DejaVuSans-53"/>
      </g>
     </g>
    </g>
    <g id="text_19">
     <!-- Loss -->
     <defs>
      <path d="M 9.8125 72.90625 
L 19.671875 72.90625 
L 19.671875 8.296875 
L 55.171875 8.296875 
L 55.171875 0 
L 9.8125 0 
z
" id="DejaVuSans-76"/>
     </defs>
     <g transform="translate(28.617188 185.581906)rotate(-90)scale(0.1 -0.1)">
      <use xlink:href="#DejaVuSans-76"/>
      <use x="55.697266" xlink:href="#DejaVuSans-111"/>
      <use x="116.878906" xlink:href="#DejaVuSans-115"/>
      <use x="168.978516" xlink:href="#DejaVuSans-115"/>
     </g>
    </g>
   </g>
   <g id="line2d_18">
    <path clip-path="url(#p923e943b0d)" d="M 73.832727 82.7685 
L 73.923922 70.872443 
L 74.015117 73.393507 
L 74.106313 66.214952 
L 74.197508 70.034342 
L 74.379898 63.185595 
L 74.835873 53.568 
L 75.200654 57.786554 
L 75.291849 55.918609 
L 75.565434 62.974867 
L 75.656629 62.77958 
L 75.747824 61.238343 
L 75.839019 61.266688 
L 76.2038 65.678816 
L 76.38619 63.607377 
L 76.477385 62.162837 
L 76.56858 62.806803 
L 76.842165 60.086142 
L 77.115751 61.808405 
L 77.206946 60.960029 
L 77.298141 60.981701 
L 77.389336 60.808323 
L 77.480531 61.785404 
L 77.754116 59.171421 
L 77.936507 61.642674 
L 78.027702 61.6342 
L 78.118897 60.956633 
L 78.210092 61.11699 
L 78.301287 62.00561 
L 78.392482 61.630598 
L 78.483677 61.770109 
L 78.757263 63.005042 
L 78.848458 62.423967 
L 78.939653 63.092263 
L 79.122043 62.423258 
L 79.213238 62.217667 
L 79.395628 62.306305 
L 79.669213 60.762499 
L 79.760409 61.138869 
L 79.851604 60.980077 
L 79.942799 60.276557 
L 80.307579 61.462063 
L 80.763555 64.46523 
L 81.03714 65.352788 
L 81.128335 64.998385 
L 81.21953 64.188363 
L 81.310725 64.987076 
L 81.40192 63.718986 
L 81.584311 65.090507 
L 81.675506 65.181742 
L 81.857896 64.368503 
L 81.949091 65.012469 
L 82.040286 64.637545 
L 82.131481 65.383082 
L 82.405066 65.045302 
L 82.587457 65.662754 
L 82.678652 66.136619 
L 82.769847 66.070126 
L 82.952237 66.152682 
L 83.134627 65.945231 
L 83.317017 66.780025 
L 83.408212 66.971768 
L 83.499408 66.836922 
L 83.590603 66.980537 
L 83.681798 66.549366 
L 83.772993 67.303553 
L 83.864188 67.241637 
L 83.955383 67.612515 
L 84.137773 69.014803 
L 84.320163 68.423334 
L 84.502554 67.854335 
L 84.867334 69.419695 
L 85.140919 68.243343 
L 85.232114 68.59618 
L 85.414505 68.397469 
L 85.5057 68.841927 
L 85.596895 68.36437 
L 85.68809 68.556763 
L 85.779285 68.108142 
L 85.87048 68.6984 
L 85.961675 68.388995 
L 86.144065 69.845611 
L 86.326456 69.31163 
L 86.417651 69.714219 
L 86.600041 68.182991 
L 86.691236 68.050891 
L 86.873626 67.521309 
L 86.964821 67.563945 
L 87.056016 67.483073 
L 87.238407 66.664341 
L 87.420797 67.005103 
L 87.511992 66.95293 
L 87.694382 68.025439 
L 87.967967 67.947018 
L 88.059162 68.570995 
L 88.241553 67.476577 
L 88.332748 67.966475 
L 88.423943 67.799091 
L 89.062308 69.759453 
L 89.153504 70.315579 
L 89.244699 69.988222 
L 89.427089 70.346552 
L 89.518284 70.211145 
L 89.609479 70.868782 
L 89.700674 70.642906 
L 90.247845 72.12831 
L 90.430235 71.55187 
L 90.52143 72.019801 
L 90.795015 70.618783 
L 91.068601 71.595598 
L 91.159796 71.384309 
L 91.433381 71.5369 
L 91.524576 71.411355 
L 91.615771 72.526116 
L 91.706966 72.351912 
L 91.798161 72.397913 
L 91.889356 72.919907 
L 91.980552 72.755003 
L 92.071747 73.107044 
L 92.254137 72.50344 
L 92.436527 73.082124 
L 92.527722 72.975534 
L 92.618917 73.269969 
L 92.710112 72.678589 
L 93.439673 76.13277 
L 93.713258 74.86645 
L 93.895649 75.215421 
L 93.986844 74.650348 
L 94.169234 75.213915 
L 94.534014 76.56958 
L 94.625209 76.411585 
L 94.716404 75.668529 
L 95.081185 77.580882 
L 95.17238 77.305048 
L 95.445965 78.605411 
L 95.53716 78.420282 
L 95.628355 79.037143 
L 95.719551 78.414347 
L 95.901941 79.372693 
L 96.084331 78.852515 
L 96.175526 79.140853 
L 96.266721 80.036279 
L 96.449111 79.791197 
L 96.722697 80.430631 
L 96.813892 80.411469 
L 97.269867 81.184863 
L 97.543453 82.679671 
L 97.725843 83.091812 
L 97.908233 83.62346 
L 98.090623 85.460875 
L 98.181818 85.469128 
L 98.273013 85.298791 
L 98.455403 84.062987 
L 98.546599 84.61588 
L 98.637794 84.589602 
L 98.728989 84.630599 
L 98.911379 84.394625 
L 99.002574 84.732198 
L 99.093769 84.52798 
L 99.276159 84.888229 
L 99.367354 84.964437 
L 99.549745 85.91766 
L 99.64094 85.862815 
L 99.914525 86.911202 
L 100.00572 86.831702 
L 100.18811 87.646094 
L 100.279305 87.582863 
L 100.461696 88.37604 
L 100.552891 88.334187 
L 100.644086 88.571326 
L 101.008866 90.47671 
L 101.100061 90.398392 
L 101.282451 91.568973 
L 101.373647 91.389867 
L 101.464842 90.767647 
L 101.556037 91.443368 
L 101.647232 90.944066 
L 101.738427 91.389306 
L 102.012012 90.578398 
L 102.285598 92.050043 
L 102.467988 92.260254 
L 102.650378 91.971104 
L 103.015158 93.226573 
L 103.197549 92.618304 
L 103.288744 92.807065 
L 103.562329 94.355241 
L 103.653524 94.298034 
L 103.744719 94.572244 
L 103.927109 93.990829 
L 104.109499 95.279927 
L 104.200695 95.48168 
L 104.47428 96.566738 
L 104.747865 95.681897 
L 105.295036 97.187969 
L 105.386231 96.933571 
L 105.842206 98.452383 
L 106.024597 98.192095 
L 106.206987 99.268532 
L 106.298182 99.135944 
L 106.480572 99.80641 
L 106.571767 100.681197 
L 106.662962 100.638931 
L 106.754157 100.454023 
L 106.936547 101.373513 
L 107.574913 102.645678 
L 107.666108 102.085064 
L 107.757303 102.291644 
L 107.848498 102.088002 
L 108.030889 102.924789 
L 108.122084 103.014519 
L 108.304474 104.262429 
L 108.395669 104.126003 
L 108.851645 105.79754 
L 108.94284 105.145572 
L 109.034035 105.264902 
L 109.12523 105.468633 
L 109.216425 105.316735 
L 109.398815 106.578433 
L 109.49001 106.475697 
L 109.581205 106.938564 
L 109.6724 106.723141 
L 109.854791 107.360006 
L 109.945986 107.158992 
L 110.128376 107.767512 
L 110.219571 107.671877 
L 110.310766 107.408385 
L 110.584351 108.075411 
L 110.766742 107.792285 
L 110.857937 108.236683 
L 110.949132 108.051524 
L 111.131522 108.750985 
L 111.222717 108.179904 
L 111.678693 110.050802 
L 111.769888 110.447752 
L 111.861083 109.954915 
L 111.952278 110.758028 
L 112.043473 110.745922 
L 112.499448 112.462014 
L 112.681839 113.510267 
L 112.773034 113.669679 
L 112.955424 114.54705 
L 113.046619 114.331878 
L 113.229009 115.17051 
L 113.320204 115.045806 
L 113.411399 114.692806 
L 113.684985 116.127454 
L 113.77618 115.759764 
L 114.505741 119.302242 
L 114.688131 119.538688 
L 114.779326 119.445016 
L 115.235301 121.668722 
L 115.326496 121.266118 
L 115.873667 123.87551 
L 116.056057 124.36563 
L 116.147252 124.096926 
L 116.329642 125.595971 
L 116.420838 125.559034 
L 116.512033 125.513873 
L 116.785618 127.829583 
L 116.968008 127.590687 
L 117.150398 128.383967 
L 117.241593 128.387096 
L 117.332789 128.141232 
L 117.515179 127.538971 
L 117.606374 127.757067 
L 117.788764 127.353517 
L 117.879959 127.431068 
L 117.971154 128.043987 
L 118.062349 127.952087 
L 118.153544 128.164248 
L 118.42713 129.681569 
L 118.60952 129.527457 
L 118.79191 129.700643 
L 118.883105 130.07347 
L 119.065495 128.984987 
L 119.247886 130.136538 
L 119.339081 129.803896 
L 119.430276 129.836124 
L 119.521471 130.228866 
L 119.703861 129.891574 
L 119.795056 130.020456 
L 119.977446 130.709331 
L 120.159837 130.524601 
L 120.342227 131.984316 
L 120.433422 131.975444 
L 120.524617 131.660193 
L 120.615812 132.402643 
L 120.707007 131.972934 
L 120.980592 133.068813 
L 121.162983 132.897665 
L 121.345373 134.224557 
L 121.618958 133.228757 
L 121.983739 134.060539 
L 122.074934 133.434864 
L 122.348519 134.469093 
L 122.439714 134.337716 
L 122.622104 135.031198 
L 122.713299 134.915853 
L 122.895689 135.402091 
L 122.986885 135.037058 
L 123.44286 137.298602 
L 123.534055 136.99804 
L 123.62525 137.034092 
L 124.172421 139.109561 
L 124.354811 140.091617 
L 124.446006 140.304737 
L 124.719591 141.686888 
L 124.901982 142.094142 
L 125.266762 141.003534 
L 125.357957 141.026579 
L 125.449152 140.804527 
L 125.540347 140.901004 
L 125.631542 141.316511 
L 125.722737 141.1686 
L 125.905128 142.851858 
L 125.996323 142.872718 
L 126.178713 141.392128 
L 126.361103 142.084458 
L 126.452298 141.768587 
L 126.634688 142.086731 
L 126.725884 141.741673 
L 126.908274 142.473834 
L 127.364249 144.760564 
L 127.455444 144.708716 
L 127.546639 144.49505 
L 127.637835 144.705778 
L 127.72903 144.56733 
L 127.820225 143.989753 
L 127.91142 144.811541 
L 128.09381 144.110515 
L 128.2762 144.523291 
L 128.367395 144.092475 
L 128.45859 144.555327 
L 128.549785 144.433148 
L 128.823371 146.124748 
L 128.914566 146.026514 
L 129.005761 145.862393 
L 129.370541 147.732124 
L 129.552932 148.732382 
L 129.644127 148.696139 
L 129.917712 150.054093 
L 130.191297 150.951969 
L 130.282492 150.98619 
L 130.464883 151.538906 
L 130.556078 151.590931 
L 130.738468 151.162166 
L 130.920858 151.873054 
L 131.012053 151.694922 
L 131.924004 155.825562 
L 132.015199 155.86247 
L 132.197589 156.598071 
L 132.288784 156.661109 
L 132.653565 155.128375 
L 132.835955 156.352398 
L 133.018345 155.656539 
L 133.10954 156.035656 
L 133.291931 155.760044 
L 133.383126 156.067943 
L 133.474321 155.294076 
L 134.021491 158.000373 
L 134.112686 157.870133 
L 134.295077 158.471566 
L 134.477467 159.405421 
L 134.568662 159.46186 
L 134.933442 161.890374 
L 135.024637 161.922912 
L 135.115832 162.260913 
L 135.207028 163.180122 
L 135.298223 163.118664 
L 135.480613 163.407799 
L 135.663003 163.668279 
L 135.754198 163.32297 
L 135.845393 163.472166 
L 135.936588 163.899572 
L 136.027783 163.652925 
L 136.210174 165.677388 
L 136.392564 165.10117 
L 136.666149 165.803347 
L 136.848539 166.816317 
L 136.939734 166.471008 
L 137.304515 167.509415 
L 137.39571 167.223468 
L 137.486905 167.292574 
L 137.5781 167.760623 
L 137.669295 167.729222 
L 137.76049 167.757508 
L 137.851685 167.578004 
L 138.581246 170.185742 
L 138.672441 169.73935 
L 138.946027 170.341611 
L 139.128417 171.816784 
L 139.219612 171.770132 
L 139.402002 172.264548 
L 139.493197 172.341523 
L 139.584392 172.268475 
L 139.949173 174.319335 
L 140.040368 174.38692 
L 140.313953 175.627758 
L 140.405148 175.511159 
L 140.496343 176.281424 
L 140.587538 176.095409 
L 140.769928 177.152195 
L 140.861124 177.126345 
L 141.134709 177.665464 
L 141.408294 179.649786 
L 141.499489 179.662438 
L 141.681879 178.933673 
L 142.137855 180.263252 
L 142.320245 180.764739 
L 142.41144 180.201439 
L 142.685026 181.790848 
L 142.776221 181.729242 
L 142.958611 182.391057 
L 143.049806 182.485924 
L 143.141001 182.225459 
L 143.505781 184.561615 
L 143.688172 185.628264 
L 143.779367 185.531521 
L 143.870562 185.443105 
L 143.961757 185.785107 
L 144.052952 185.639277 
L 144.235342 186.440101 
L 144.508927 188.127405 
L 144.691318 188.425767 
L 144.782513 188.315339 
L 145.785659 190.721384 
L 145.876854 190.295483 
L 146.059244 191.095288 
L 146.150439 190.86339 
L 146.332829 191.06774 
L 146.51522 191.677471 
L 146.69761 191.700369 
L 146.88 191.117463 
L 147.153585 192.402575 
L 147.24478 192.685717 
L 147.427171 193.63643 
L 147.609561 194.20667 
L 147.791951 193.078415 
L 147.974341 194.006644 
L 148.065536 193.900232 
L 148.247926 194.676535 
L 148.339122 194.210449 
L 149.251073 196.928969 
L 149.342268 196.711937 
L 149.433463 196.886732 
L 149.615853 196.019268 
L 149.707048 195.757784 
L 149.980633 197.088558 
L 150.163023 196.538235 
L 150.345414 196.874789 
L 150.527804 197.34427 
L 150.618999 197.042542 
L 150.892584 198.580044 
L 150.983779 198.425829 
L 151.16617 198.946332 
L 151.34856 198.716426 
L 151.439755 198.830397 
L 151.53095 198.737685 
L 151.622145 199.441131 
L 151.71334 199.187472 
L 152.442901 200.828139 
L 152.534096 200.571172 
L 152.625291 200.740933 
L 152.807681 201.251087 
L 152.898876 201.350191 
L 152.990072 200.8349 
L 153.172462 201.095749 
L 153.354852 200.024436 
L 153.628437 201.326511 
L 153.719632 201.019424 
L 153.993218 202.647816 
L 154.084413 202.427167 
L 154.631583 203.351454 
L 154.813973 204.128657 
L 154.905169 203.885303 
L 155.269949 205.193837 
L 155.543534 206.037858 
L 155.725924 206.988202 
L 155.81712 207.676546 
L 155.908315 207.553252 
L 155.99951 207.79065 
L 156.090705 207.290241 
L 156.36429 208.616099 
L 156.455485 208.622403 
L 156.54668 209.410391 
L 156.637875 208.266915 
L 156.820266 208.821978 
L 156.911461 208.718289 
L 157.093851 208.889623 
L 157.185046 208.862835 
L 157.276241 209.107792 
L 157.367436 208.993872 
L 157.549826 208.129921 
L 157.823412 209.302495 
L 157.914607 208.646017 
L 158.188192 209.999401 
L 158.279387 210.291555 
L 158.370582 210.224664 
L 159.008948 211.970835 
L 159.100143 211.908875 
L 159.191338 211.530386 
L 159.556118 212.680793 
L 159.647314 212.799281 
L 159.738509 212.658102 
L 159.829704 212.788046 
L 159.920899 212.410953 
L 160.468069 214.309088 
L 160.559265 214.294783 
L 160.65046 214.514384 
L 160.83285 213.860054 
L 161.19763 214.988611 
L 161.288825 214.441122 
L 161.562411 214.913666 
L 161.653606 214.560932 
L 162.109581 216.047922 
L 162.200776 216.092891 
L 162.291971 215.851381 
L 162.474362 216.962252 
L 162.565557 216.907592 
L 162.747947 215.909326 
L 162.839142 216.024899 
L 162.930337 215.87529 
L 163.203922 217.729859 
L 163.295117 217.967767 
L 163.386313 217.861162 
L 163.477508 218.44976 
L 163.568703 218.411678 
L 163.659898 218.427571 
L 163.842288 218.784911 
L 163.933483 217.914679 
L 164.024678 218.841867 
L 164.115873 218.658989 
L 164.207068 218.912538 
L 164.298264 218.688442 
L 164.663044 220.105175 
L 164.754239 220.098568 
L 164.936629 220.590829 
L 165.119019 220.47623 
L 165.210215 221.015452 
L 165.392605 220.347105 
L 165.4838 220.458087 
L 165.574995 220.13848 
L 165.84858 221.486875 
L 166.03097 221.954164 
L 166.213361 221.796405 
L 166.304556 222.625501 
L 166.395751 222.21767 
L 166.486946 222.901312 
L 166.578141 222.835366 
L 166.669336 222.842873 
L 166.760531 222.713814 
L 166.851726 222.878252 
L 166.942921 222.767883 
L 167.034116 222.950451 
L 167.307702 222.257789 
L 167.763677 224.074772 
L 167.946067 223.69144 
L 168.037263 224.007873 
L 168.128458 223.72947 
L 168.402043 225.02065 
L 168.584433 225.050214 
L 168.675628 225.881863 
L 168.858018 225.091816 
L 169.040409 224.912887 
L 169.131604 224.990083 
L 169.405189 225.772328 
L 169.587579 224.513745 
L 169.678774 224.5466 
L 169.769969 225.128709 
L 169.861164 225.066209 
L 169.95236 224.77015 
L 170.225945 226.616696 
L 170.49953 227.49586 
L 170.590725 227.590927 
L 170.68192 227.519526 
L 170.773115 227.651294 
L 170.864311 228.092061 
L 171.046701 227.648858 
L 171.137896 227.754591 
L 171.320286 228.401082 
L 171.411481 228.302317 
L 171.502676 228.936628 
L 171.593871 228.3864 
L 171.685066 229.17855 
L 171.867457 228.559327 
L 171.958652 228.938111 
L 172.049847 228.709128 
L 172.232237 228.824376 
L 172.414627 228.586757 
L 172.505822 228.674885 
L 172.688212 229.809555 
L 172.779408 229.875029 
L 172.961798 230.826547 
L 173.052993 230.829707 
L 173.235383 229.777002 
L 173.417773 229.348584 
L 173.508968 229.63659 
L 173.600163 229.523224 
L 173.873749 230.935351 
L 173.964944 230.567234 
L 174.056139 230.594745 
L 174.329724 231.336273 
L 174.420919 230.703645 
L 174.603309 231.255902 
L 174.694505 231.152162 
L 174.96809 232.387494 
L 175.059285 231.994965 
L 175.241675 232.800395 
L 175.424065 233.022749 
L 175.606456 233.673831 
L 175.788846 233.60753 
L 176.062431 234.096248 
L 176.244821 234.821721 
L 176.336016 234.583179 
L 176.427211 234.964155 
L 176.609602 234.572136 
L 176.700797 234.835532 
L 176.883187 234.446834 
L 177.065577 235.050394 
L 177.156772 234.519011 
L 177.339162 235.317636 
L 177.430358 235.169628 
L 177.612748 235.881062 
L 177.886333 236.952331 
L 178.433504 237.249955 
L 178.524699 237.819987 
L 178.615894 237.744031 
L 178.707089 237.536994 
L 178.798284 237.724367 
L 178.980674 238.636615 
L 179.071869 238.610861 
L 179.43665 239.774156 
L 179.61904 239.712181 
L 179.710235 240.227014 
L 179.80143 239.850171 
L 179.98382 240.398303 
L 180.075015 240.498153 
L 180.257406 241.936551 
L 180.713381 240.569178 
L 180.804576 240.608721 
L 180.986966 240.828012 
L 181.169356 241.837697 
L 181.260552 240.355305 
L 181.351747 240.620163 
L 181.442942 240.007627 
L 181.534137 240.235791 
L 181.625332 239.934085 
L 181.716527 240.275998 
L 182.081307 238.519677 
L 182.172503 238.569318 
L 182.446088 239.47307 
L 182.628478 239.769934 
L 182.810868 240.344543 
L 182.902063 240.131859 
L 183.084454 240.579845 
L 183.266844 240.657262 
L 183.358039 240.438215 
L 183.540429 241.174849 
L 183.631624 240.898491 
L 183.722819 241.227125 
L 183.905209 240.666814 
L 184.0876 240.19751 
L 184.178795 240.248841 
L 184.26999 240.402259 
L 184.361185 239.572662 
L 184.543575 240.122993 
L 184.63477 240.13301 
L 184.81716 240.810577 
L 184.908355 240.411243 
L 185.546721 242.644987 
L 185.637916 242.062731 
L 185.820306 242.342211 
L 186.002697 241.974263 
L 186.367477 243.160544 
L 186.458672 242.876908 
L 186.549867 243.216423 
L 186.641062 243.126929 
L 186.823453 242.778638 
L 187.097038 243.467366 
L 187.826599 244.907373 
L 187.917794 244.547832 
L 188.191379 245.570841 
L 188.282574 245.4249 
L 188.373769 245.568951 
L 188.464964 245.34983 
L 188.647354 245.816314 
L 188.73855 245.716139 
L 188.829745 245.250002 
L 188.92094 245.43398 
L 189.012135 244.976493 
L 189.28572 246.6332 
L 189.376915 247.015579 
L 189.559305 246.19563 
L 189.741696 246.55238 
L 189.832891 246.480986 
L 190.197671 248.089344 
L 190.288866 248.007763 
L 190.380061 247.666056 
L 190.653647 248.653796 
L 190.836037 248.15405 
L 190.927232 248.536643 
L 191.109622 248.412648 
L 191.200817 248.665134 
L 191.292012 248.348318 
L 191.565598 249.859284 
L 191.747988 249.574348 
L 191.839183 249.827233 
L 191.930378 249.776322 
L 192.295158 249.804727 
L 192.386353 249.487468 
L 192.659939 250.004707 
L 192.842329 249.587901 
L 193.024719 250.296197 
L 193.115914 250.201721 
L 193.207109 250.534887 
L 193.298304 249.937174 
L 193.389499 250.018112 
L 193.480695 249.798895 
L 193.75428 250.468881 
L 193.845475 250.427168 
L 194.027865 251.267956 
L 194.11906 251.231107 
L 194.210255 251.072426 
L 194.392646 251.989812 
L 194.483841 251.362344 
L 194.848621 252.259054 
L 194.939816 252.101023 
L 195.122206 252.190133 
L 195.395792 251.648083 
L 195.486987 251.818538 
L 195.578182 252.400721 
L 195.760572 252.053116 
L 195.851767 252.283753 
L 196.034157 252.025901 
L 196.216547 252.295194 
L 196.307743 252.063465 
L 196.398938 252.335047 
L 196.490133 251.905042 
L 196.581328 251.988683 
L 196.672523 252.129213 
L 196.763718 251.848271 
L 197.037303 252.54895 
L 197.128498 252.446184 
L 197.219694 252.552544 
L 197.402084 253.283465 
L 197.493279 253.0347 
L 197.675669 253.664301 
L 197.766864 253.607604 
L 198.040449 254.078915 
L 198.131645 254.070729 
L 198.314035 255.023259 
L 198.40523 255.092564 
L 198.58762 254.704974 
L 198.861205 255.346047 
L 198.9524 255.247311 
L 199.043596 255.393126 
L 199.134791 255.937582 
L 199.225986 255.504277 
L 199.317181 255.728293 
L 199.681961 255.413366 
L 199.773156 255.355023 
L 199.955546 254.825839 
L 200.046742 254.511349 
L 200.137937 254.585614 
L 200.229132 254.631218 
L 200.320327 254.510005 
L 200.411522 254.67471 
L 200.502717 254.584271 
L 200.685107 255.163693 
L 200.776302 255.130594 
L 201.414668 256.524798 
L 201.505863 256.50489 
L 201.688253 256.893322 
L 201.870644 256.792298 
L 202.053034 256.426831 
L 202.235424 256.645361 
L 202.326619 256.678807 
L 202.600204 255.814849 
L 202.691399 256.079433 
L 202.964985 255.409211 
L 203.147375 255.913673 
L 203.329765 255.016202 
L 203.42096 255.283953 
L 203.60335 254.846058 
L 203.694545 254.949931 
L 203.785741 254.873103 
L 203.968131 255.381124 
L 204.059326 255.275199 
L 204.150521 255.54216 
L 204.241716 255.330457 
L 204.332911 255.379086 
L 204.424106 255.189454 
L 204.606496 255.864829 
L 204.697692 255.81276 
L 204.880082 254.958781 
L 205.336057 256.751486 
L 205.427252 256.616418 
L 205.518447 256.213947 
L 205.883228 257.305833 
L 205.974423 257.264297 
L 206.065618 257.294834 
L 206.521593 258.830344 
L 206.612789 258.785877 
L 206.703984 258.796972 
L 206.795179 259.280419 
L 206.886374 259.144642 
L 206.977569 258.756535 
L 207.068764 259.357246 
L 207.159959 258.939244 
L 207.251154 258.986279 
L 207.342349 258.980292 
L 207.52474 259.576131 
L 207.798325 260.570219 
L 207.88952 260.018928 
L 208.07191 260.767513 
L 208.163105 260.680934 
L 208.2543 261.106215 
L 208.436691 260.807277 
L 208.527886 261.009553 
L 208.619081 260.517787 
L 208.983861 261.401942 
L 209.166251 261.373508 
L 209.348641 261.424529 
L 209.531032 261.562158 
L 209.622227 261.576855 
L 209.713422 262.175602 
L 209.804617 261.748277 
L 209.895812 262.031986 
L 209.987007 261.866677 
L 210.169397 262.325868 
L 210.260592 262.354575 
L 210.351788 262.23568 
L 210.442983 262.759622 
L 210.625373 261.741788 
L 210.898958 262.667707 
L 210.990153 262.724752 
L 211.354934 261.167356 
L 211.446129 261.00215 
L 211.810909 261.628666 
L 211.902104 261.615084 
L 211.993299 261.363942 
L 212.266885 262.276574 
L 212.449275 262.091238 
L 212.631665 261.786985 
L 212.72286 261.652649 
L 212.90525 261.941954 
L 212.996445 262.029632 
L 213.08764 262.484298 
L 213.361226 261.924865 
L 213.452421 261.800523 
L 213.543616 261.328709 
L 213.817201 262.179831 
L 213.908396 261.933288 
L 214.181982 262.31684 
L 214.273177 262.389829 
L 214.455567 262.938817 
L 214.637957 263.148504 
L 214.729152 262.554098 
L 214.911542 262.871711 
L 215.002737 262.638218 
L 215.093933 263.014603 
L 215.367518 261.595456 
L 215.458713 261.722707 
L 215.914688 263.450779 
L 216.005884 263.66694 
L 216.097079 263.444718 
L 216.188274 263.617314 
L 216.461859 264.876894 
L 216.553054 264.762446 
L 216.917835 265.465022 
L 217.100225 264.935499 
L 217.19142 265.173757 
L 217.647395 264.454817 
L 217.829785 263.649564 
L 217.920981 263.819258 
L 218.194566 264.661079 
L 218.285761 264.454743 
L 218.559346 264.749436 
L 218.650541 264.536272 
L 218.741736 264.8773 
L 218.924127 264.614029 
L 219.197712 265.035047 
L 219.288907 264.833398 
L 219.380102 265.029884 
L 219.562492 264.720752 
L 219.744883 264.958648 
L 219.927273 265.288426 
L 220.200858 266.166354 
L 220.383248 266.078916 
L 220.474443 266.457416 
L 220.565638 266.322968 
L 220.839224 266.792169 
L 221.021614 267.530803 
L 221.295199 266.403239 
L 221.386394 266.458645 
L 221.751175 265.845083 
L 221.84237 266.24875 
L 221.933565 266.143135 
L 222.115955 265.475161 
L 222.298345 265.702132 
L 222.38954 265.440312 
L 222.663126 266.402615 
L 222.845516 266.461291 
L 222.936711 266.330656 
L 223.666272 266.997066 
L 224.031052 266.180641 
L 224.304637 267.260074 
L 224.487028 267.620796 
L 224.760613 268.160232 
L 224.943003 268.389237 
L 225.034198 267.939896 
L 225.216588 268.436409 
L 225.398979 267.994461 
L 225.490174 267.854322 
L 225.672564 268.201004 
L 225.763759 267.952364 
L 225.946149 268.209145 
L 226.037344 267.959679 
L 226.31093 268.587262 
L 226.584515 267.691721 
L 226.766905 267.957977 
L 226.8581 267.690226 
L 226.949295 267.7379 
L 227.314076 268.73449 
L 227.405271 268.755797 
L 227.587661 269.365199 
L 227.678856 268.954054 
L 227.770051 269.079068 
L 227.952441 268.78102 
L 228.043636 268.949603 
L 228.134831 268.894448 
L 228.317222 268.791007 
L 228.408417 268.140379 
L 228.590807 269.251294 
L 228.773197 269.121962 
L 228.864392 269.308985 
L 228.955587 269.054465 
L 229.046782 269.133514 
L 229.137978 269.015938 
L 229.411563 269.324435 
L 229.502758 269.061308 
L 229.593953 269.364664 
L 229.776343 269.085767 
L 229.867538 269.026825 
L 229.958733 269.127705 
L 230.141124 269.035775 
L 230.505904 269.867451 
L 230.597099 269.822844 
L 230.688294 269.579031 
L 230.961879 270.148939 
L 231.053075 269.764574 
L 231.235465 269.980038 
L 231.32666 269.827671 
L 231.417855 270.137095 
L 231.600245 269.808933 
L 231.87383 270.665636 
L 232.147416 271.307063 
L 232.238611 271.044564 
L 232.421001 271.57787 
L 232.603391 271.064062 
L 232.876977 271.28945 
L 233.059367 271.008697 
L 233.332952 271.412176 
L 233.424147 271.47782 
L 233.515342 271.032229 
L 233.697732 271.43648 
L 233.880123 271.085509 
L 233.971318 271.094149 
L 234.153708 271.71748 
L 234.244903 271.206168 
L 234.518488 271.925611 
L 234.700878 271.518142 
L 234.883269 271.684872 
L 234.974464 271.37725 
L 235.156854 271.445087 
L 235.339244 271.666983 
L 235.430439 271.883628 
L 235.612829 271.744242 
L 235.704025 271.826546 
L 235.886415 271.530989 
L 236.068805 271.913505 
L 236.433585 271.457908 
L 236.615975 272.149866 
L 236.707171 272.240548 
L 236.798366 272.710867 
L 236.889561 272.45758 
L 237.163146 272.969874 
L 237.345536 273.288849 
L 237.619122 272.038821 
L 237.892707 272.506542 
L 238.075097 272.270067 
L 238.348682 272.816585 
L 238.439877 272.443304 
L 238.531073 272.497813 
L 238.622268 272.639129 
L 238.713463 272.501349 
L 238.987048 273.220349 
L 239.169438 272.849419 
L 239.443023 273.564506 
L 239.534219 273.8728 
L 239.898999 273.120078 
L 240.081389 273.466306 
L 240.172584 273.422821 
L 240.263779 273.106717 
L 240.354974 273.284708 
L 240.44617 273.203825 
L 240.62856 272.749838 
L 240.902145 273.753706 
L 240.99334 273.814231 
L 241.17573 273.672387 
L 241.266925 273.916222 
L 241.358121 273.766424 
L 241.722901 274.589312 
L 241.996486 273.780387 
L 242.087681 273.845067 
L 242.270072 274.148106 
L 242.452462 273.616413 
L 242.543657 273.523907 
L 242.726047 273.793544 
L 242.817242 273.436233 
L 242.908437 273.532201 
L 243.182022 274.483313 
L 243.455608 273.8336 
L 243.637998 274.36113 
L 243.911583 274.887438 
L 244.002778 275.180788 
L 244.276364 274.734359 
L 244.367559 275.014877 
L 244.641144 274.384212 
L 244.732339 274.524004 
L 244.823534 274.554279 
L 245.27951 275.614303 
L 245.370705 276.01061 
L 245.64429 275.178156 
L 245.917875 276.265421 
L 246.00907 276.288116 
L 246.373851 276.974969 
L 246.465046 276.78647 
L 246.647436 277.357665 
L 246.829826 276.39847 
L 246.921021 276.496486 
L 247.012217 276.346637 
L 247.103412 276.572712 
L 247.194607 276.328198 
L 247.376997 276.849575 
L 247.650582 277.483207 
L 247.832972 277.149941 
L 248.015363 277.625335 
L 248.197753 277.729898 
L 248.380143 277.296509 
L 248.471338 277.419929 
L 248.562533 277.141157 
L 248.653728 277.263676 
L 248.744923 277.600061 
L 248.836118 277.449056 
L 249.018509 277.88153 
L 249.109704 277.799263 
L 249.200899 277.354384 
L 249.292094 277.692179 
L 249.383289 277.640954 
L 249.474484 277.129874 
L 249.565679 277.448204 
L 249.839265 276.920585 
L 249.93046 276.78747 
L 250.204045 277.473371 
L 250.386435 277.923269 
L 250.568825 277.827973 
L 250.66002 278.111539 
L 250.842411 276.956257 
L 250.933606 277.03514 
L 251.024801 277.09995 
L 251.115996 276.906147 
L 251.298386 276.990836 
L 251.480776 276.712359 
L 251.571971 276.694197 
L 251.754362 277.086382 
L 252.027947 277.780953 
L 252.210337 277.667063 
L 252.392727 278.184251 
L 252.575117 277.764625 
L 252.939898 278.319584 
L 253.122288 277.964004 
L 253.760654 279.575968 
L 253.943044 278.947134 
L 254.125434 279.182018 
L 254.307824 278.951876 
L 254.58141 279.603519 
L 254.854995 280.124623 
L 254.94619 279.774627 
L 255.12858 279.938889 
L 255.584556 278.397297 
L 255.675751 278.764968 
L 255.766946 278.113897 
L 255.949336 278.624501 
L 256.040531 278.658224 
L 256.131726 278.95732 
L 256.222921 278.765208 
L 256.405312 278.038635 
L 256.678897 278.432551 
L 256.861287 278.657866 
L 256.952482 278.95301 
L 257.043677 278.859293 
L 257.226067 279.702222 
L 257.499653 278.938933 
L 257.590848 279.141734 
L 257.682043 279.063748 
L 257.955628 279.763238 
L 258.229213 279.860995 
L 258.320409 280.055366 
L 258.411604 279.643236 
L 258.502799 279.861792 
L 258.593994 279.789874 
L 258.685189 279.91987 
L 258.776384 279.558544 
L 259.141164 280.261433 
L 259.23236 279.820249 
L 259.41475 280.168928 
L 259.59714 280.318526 
L 259.688335 280.389145 
L 259.77953 280.275654 
L 259.96192 280.587668 
L 260.144311 280.108797 
L 260.235506 279.891994 
L 260.326701 280.131197 
L 260.417896 279.986293 
L 260.600286 280.188466 
L 260.873871 279.903114 
L 261.056261 279.980997 
L 261.147457 279.616219 
L 261.512237 280.500204 
L 261.603432 280.493634 
L 261.785822 280.896575 
L 261.877017 280.796086 
L 261.968212 280.662672 
L 262.241798 280.745829 
L 262.332993 280.79248 
L 262.424188 280.606018 
L 262.606578 280.889865 
L 262.788968 280.640169 
L 263.062554 281.134836 
L 263.153749 281.098264 
L 263.244944 281.209065 
L 263.336139 280.410227 
L 263.427334 280.566018 
L 263.792114 281.400694 
L 263.883309 281.261356 
L 264.0657 281.775625 
L 264.24809 281.685858 
L 264.339285 281.594939 
L 264.43048 281.807306 
L 264.61287 281.36992 
L 264.79526 280.729394 
L 264.977651 280.564368 
L 265.068846 280.872769 
L 265.160041 280.799563 
L 265.251236 280.709102 
L 265.433626 280.341386 
L 265.524821 280.318197 
L 265.616016 280.607137 
L 265.798407 280.26378 
L 265.889602 280.441189 
L 265.980797 280.383166 
L 266.071992 280.117382 
L 266.254382 280.255757 
L 266.345577 280.340224 
L 266.527967 280.92306 
L 266.801553 281.057216 
L 266.892748 280.713959 
L 267.075138 280.934748 
L 267.348723 281.655228 
L 267.439918 281.65084 
L 267.531113 281.504386 
L 267.713504 281.598837 
L 267.804699 281.175992 
L 267.987089 281.344077 
L 268.078284 281.196671 
L 268.169479 281.349923 
L 268.351869 281.195786 
L 268.534259 281.270077 
L 268.990235 282.042298 
L 269.08143 281.975052 
L 269.172625 281.619682 
L 269.355015 281.953712 
L 269.537406 281.801608 
L 269.719796 282.218355 
L 270.175771 282.772713 
L 270.266966 283.197037 
L 270.358161 283.176491 
L 270.449356 282.919646 
L 270.540552 283.02652 
L 270.631747 282.884425 
L 270.814137 281.91232 
L 270.996527 282.438222 
L 271.178917 282.102136 
L 271.634893 282.801652 
L 271.908478 282.481013 
L 271.999673 282.529432 
L 272.090868 282.727065 
L 272.182063 282.58138 
L 272.364454 282.996669 
L 272.638039 282.768576 
L 272.729234 282.384193 
L 272.820429 282.415679 
L 273.002819 282.930977 
L 273.094014 282.948405 
L 273.185209 283.192055 
L 273.3676 282.735901 
L 273.54999 283.297884 
L 273.73238 282.96856 
L 273.91477 282.992015 
L 274.09716 283.249354 
L 274.188355 283.491797 
L 274.279551 283.432992 
L 274.553136 283.25162 
L 274.735526 283.089573 
L 274.917916 283.776157 
L 275.009111 283.479906 
L 275.282697 284.056401 
L 275.556282 283.65569 
L 275.738672 283.572134 
L 275.829867 283.875069 
L 275.921062 283.840819 
L 276.012257 283.85745 
L 276.103453 283.71665 
L 276.285843 284.125289 
L 276.650623 283.044701 
L 276.924208 282.896882 
L 277.106599 283.262844 
L 277.197794 283.336261 
L 277.288989 282.941488 
L 277.380184 282.973727 
L 277.471379 282.823959 
L 277.562574 282.913365 
L 277.744964 283.244349 
L 277.836159 283.284036 
L 277.927354 283.609839 
L 278.01855 283.527849 
L 278.20094 283.098184 
L 278.38333 283.227745 
L 278.656915 283.799914 
L 278.930501 283.077501 
L 279.112891 283.782199 
L 279.386476 283.423418 
L 279.568866 283.867592 
L 279.660061 284.326093 
L 279.751256 284.035633 
L 279.842451 284.090633 
L 280.024842 284.443371 
L 280.116037 284.240659 
L 280.389622 284.530473 
L 280.663207 283.511362 
L 280.845598 284.038427 
L 280.936793 283.943954 
L 281.210378 284.105573 
L 281.392768 283.932029 
L 281.483963 284.100882 
L 281.575158 284.007834 
L 281.666353 284.343085 
L 281.757549 284.162241 
L 281.848744 284.579014 
L 281.939939 284.361115 
L 282.213524 284.765007 
L 282.304719 284.817782 
L 282.578304 284.232584 
L 282.85189 284.73778 
L 283.125475 284.665869 
L 283.21667 284.880731 
L 283.307865 284.640968 
L 283.39906 285.085101 
L 283.58145 284.372268 
L 283.855036 284.824532 
L 284.128621 285.326695 
L 284.219816 285.019892 
L 284.311011 285.161308 
L 284.493401 285.081491 
L 284.584597 285.256548 
L 284.675792 285.056508 
L 284.766987 284.57418 
L 284.858182 284.62258 
L 285.131767 284.886788 
L 285.405352 284.056833 
L 285.496547 284.483268 
L 285.587743 284.087776 
L 285.678938 284.312327 
L 285.861328 283.658292 
L 286.043718 283.995953 
L 286.134913 283.692402 
L 287.138059 285.748624 
L 287.229254 285.017249 
L 287.50284 285.65186 
L 287.68523 285.586212 
L 287.958815 285.635443 
L 288.05001 285.553648 
L 288.141205 285.677691 
L 288.323596 286.39042 
L 288.414791 286.341946 
L 288.597181 285.80334 
L 288.779571 286.307725 
L 288.961961 286.555114 
L 289.053156 286.297885 
L 289.144351 286.426099 
L 289.600327 287.734364 
L 289.691522 287.73305 
L 290.147497 288.319529 
L 290.512278 288.081983 
L 290.603473 288.019827 
L 290.694668 288.378658 
L 290.785863 288.352816 
L 290.877058 288.34353 
L 290.968253 288.56887 
L 291.059448 288.414274 
L 291.241839 288.624733 
L 291.333034 288.482583 
L 291.424229 288.592808 
L 291.697814 288.0369 
L 291.789009 288.065216 
L 291.880204 287.779055 
L 291.971399 287.821676 
L 292.15379 287.648812 
L 292.33618 287.779838 
L 292.427375 287.978294 
L 292.51857 287.878799 
L 292.609765 287.502757 
L 292.70096 287.75167 
L 292.792155 287.700313 
L 292.88335 287.682294 
L 293.065741 286.721036 
L 293.156936 286.718478 
L 293.248131 286.839255 
L 293.339326 286.708015 
L 293.430521 286.783757 
L 293.521716 287.045931 
L 293.795301 286.031799 
L 293.886496 286.388977 
L 294.068887 285.90525 
L 294.160082 286.054667 
L 294.251277 285.985339 
L 294.524862 286.439253 
L 294.707252 286.892561 
L 294.889642 286.38016 
L 294.980838 286.589497 
L 295.072033 286.535265 
L 295.254423 286.737316 
L 295.345618 286.615594 
L 295.528008 286.731931 
L 295.619203 286.811323 
L 295.710398 287.212499 
L 295.801593 287.168959 
L 296.075179 287.820182 
L 296.166374 287.900777 
L 296.257569 287.816395 
L 296.439959 288.308582 
L 296.622349 288.251906 
L 296.80474 287.598636 
L 296.98713 287.203989 
L 297.35191 287.114775 
L 297.5343 287.129184 
L 297.625495 286.265078 
L 297.716691 286.42339 
L 297.807886 286.795309 
L 297.990276 286.462689 
L 298.081471 286.5432 
L 298.172666 286.289666 
L 298.355056 286.784421 
L 298.537446 287.336834 
L 298.902227 287.056461 
L 299.084617 287.795682 
L 299.175812 287.75498 
L 299.358202 288.025031 
L 299.449397 288.233246 
L 299.540592 287.997379 
L 299.631788 288.041384 
L 299.722983 288.029637 
L 299.905373 287.755601 
L 300.178958 287.425893 
L 300.361348 287.627376 
L 300.452543 287.483207 
L 300.726129 287.800879 
L 300.908519 288.398282 
L 300.999714 287.950924 
L 301.090909 288.127328 
L 301.182104 287.914285 
L 301.273299 287.968842 
L 301.364494 287.882408 
L 301.455689 288.033508 
L 301.63808 288.4514 
L 301.729275 288.66731 
L 301.82047 288.473061 
L 302.00286 288.894691 
L 302.094055 288.822138 
L 302.18525 289.139973 
L 302.550031 287.39616 
L 302.732421 287.591357 
L 303.006006 288.386826 
L 303.097201 288.387734 
L 303.279591 288.828025 
L 303.370787 288.78096 
L 303.553177 288.888816 
L 303.735567 288.711271 
L 304.100347 289.241595 
L 304.373933 287.803477 
L 304.465128 287.999775 
L 304.556323 288.085356 
L 304.647518 287.828523 
L 304.829908 288.267005 
L 304.921103 288.165756 
L 305.194688 288.623386 
L 305.285884 288.402715 
L 305.741859 289.238225 
L 305.833054 289.342364 
L 305.924249 289.161881 
L 306.015444 289.363955 
L 306.106639 289.237819 
L 306.197835 289.516742 
L 306.380225 289.455146 
L 306.47142 289.509224 
L 306.562615 289.291398 
L 306.8362 289.770457 
L 307.01859 289.646362 
L 307.292176 288.860183 
L 307.474566 288.296184 
L 307.930541 289.120161 
L 308.021736 288.963701 
L 308.204127 289.341511 
L 308.295322 289.421826 
L 308.386517 289.180568 
L 308.477712 289.237195 
L 308.568907 289.170215 
L 308.751297 289.375924 
L 308.842492 289.883704 
L 308.933687 289.85609 
L 309.207273 288.834617 
L 309.298468 288.958169 
L 309.389663 288.921158 
L 309.480858 288.676736 
L 309.663248 288.83758 
L 309.845638 288.83644 
L 310.028029 288.959162 
L 310.119224 288.940398 
L 310.210419 289.355647 
L 310.392809 289.212836 
L 310.575199 289.292033 
L 310.757589 288.499775 
L 311.213565 288.725613 
L 311.30476 288.366006 
L 311.395955 288.416231 
L 311.578345 288.433352 
L 311.760735 287.94744 
L 311.943126 287.879109 
L 312.034321 287.828139 
L 312.125516 287.971452 
L 312.216711 287.846593 
L 312.307906 288.034501 
L 312.399101 287.949621 
L 312.763882 288.312357 
L 312.855077 288.106667 
L 313.037467 287.44858 
L 313.128662 287.365257 
L 313.311052 287.448052 
L 313.493442 287.507267 
L 313.584637 287.289404 
L 313.675832 287.420393 
L 313.767028 287.007352 
L 314.040613 287.511138 
L 314.131808 287.383105 
L 314.314198 287.58247 
L 314.405393 287.409292 
L 314.496588 287.668985 
L 314.678979 287.297934 
L 315.043759 288.202834 
L 315.134954 288.157131 
L 315.317344 287.452448 
L 315.408539 287.355569 
L 315.59093 286.495412 
L 315.682125 286.410417 
L 315.77332 286.821447 
L 315.95571 286.694843 
L 316.046905 286.795649 
L 316.229295 286.675123 
L 316.32049 286.729621 
L 316.411685 286.3593 
L 316.50288 286.46414 
L 316.685271 286.234688 
L 316.776466 286.32915 
L 316.958856 286.697223 
L 317.232441 285.733514 
L 317.323636 285.815542 
L 317.506027 285.783207 
L 317.597222 285.813427 
L 317.870807 285.479312 
L 318.053197 286.036099 
L 318.235587 285.320528 
L 318.326782 285.516242 
L 318.417978 285.454938 
L 318.782758 285.158399 
L 318.965148 285.420105 
L 319.056343 285.398252 
L 319.329928 285.813368 
L 319.421124 285.825773 
L 319.694709 285.61418 
L 319.785904 286.068662 
L 319.877099 285.91706 
L 320.059489 285.497663 
L 320.150684 285.454067 
L 320.333075 285.769669 
L 320.697855 286.669996 
L 320.880245 285.975799 
L 321.15383 286.276298 
L 321.245026 286.073228 
L 321.336221 286.419326 
L 321.427416 286.320598 
L 321.518611 286.561517 
L 321.609806 286.035028 
L 321.701001 286.169155 
L 321.883391 286.035523 
L 322.156977 286.976371 
L 322.521757 286.441567 
L 322.704147 287.033918 
L 322.977732 287.631118 
L 323.160123 287.787175 
L 323.342513 287.329648 
L 323.616098 288.153617 
L 323.707293 288.1449 
L 323.980878 288.439051 
L 324.163269 288.140065 
L 324.345659 288.722624 
L 324.528049 288.713902 
L 324.984025 289.497587 
L 325.25761 289.378105 
L 325.44 289.599902 
L 325.62239 289.26041 
L 325.713585 289.393289 
L 325.80478 289.298333 
L 326.169561 290.2466 
L 326.443146 290.905414 
L 326.716731 290.673954 
L 326.990317 291.17081 
L 327.081512 291.192165 
L 327.172707 291.538046 
L 327.355097 291.083471 
L 327.446292 291.457074 
L 327.628682 291.121759 
L 327.719877 291.093407 
L 327.811073 291.503194 
L 327.902268 291.454966 
L 328.540633 291.608355 
L 328.631828 291.503212 
L 328.996609 292.217129 
L 329.087804 292.141262 
L 329.178999 292.193527 
L 329.361389 291.9434 
L 329.543779 292.313215 
L 329.72617 291.875076 
L 329.817365 291.996052 
L 330.09095 292.438816 
L 330.364535 291.803999 
L 330.546925 291.770612 
L 330.729316 291.815082 
L 330.820511 291.870614 
L 330.911706 290.904912 
L 331.002901 291.06914 
L 331.094096 291.148075 
L 331.276486 291.031963 
L 331.641267 291.269235 
L 331.732462 291.178719 
L 331.914852 291.4041 
L 332.188437 290.465994 
L 332.279632 290.431341 
L 332.462022 289.684163 
L 332.553218 290.075396 
L 332.644413 290.02171 
L 333.009193 290.871448 
L 333.191583 290.939889 
L 333.282778 290.751139 
L 333.465169 289.974324 
L 333.647559 290.46138 
L 333.829949 290.539156 
L 333.921144 290.085261 
L 334.012339 290.152799 
L 334.285924 290.105811 
L 334.37712 290.29868 
L 334.468315 290.063172 
L 334.55951 290.334861 
L 334.650705 290.025072 
L 334.7419 290.166115 
L 334.92429 289.908658 
L 335.10668 289.981414 
L 335.197875 289.742303 
L 335.380266 289.864509 
L 335.471461 289.604634 
L 335.745046 289.859589 
L 335.836241 289.820393 
L 335.927436 289.515121 
L 336.018631 289.562345 
L 336.109826 289.3944 
L 336.201021 289.458387 
L 336.565802 290.172836 
L 336.748192 290.204277 
L 336.839387 289.829756 
L 337.021777 290.256314 
L 337.112972 289.837326 
L 337.204168 289.866524 
L 337.477753 289.304943 
L 337.660143 289.640704 
L 338.024923 289.288866 
L 338.207314 288.931953 
L 338.480899 289.558499 
L 338.572094 289.584168 
L 338.754484 289.938807 
L 338.845679 289.891662 
L 339.39285 290.961174 
L 339.57524 291.578544 
L 339.75763 291.354725 
L 339.848825 291.656361 
L 339.94002 291.464876 
L 340.122411 291.543493 
L 340.304801 291.658029 
L 340.395996 291.389544 
L 340.487191 291.441344 
L 340.851971 292.350462 
L 341.034362 291.578308 
L 341.125557 291.621472 
L 341.216752 291.971305 
L 341.399142 291.741913 
L 341.581532 291.90671 
L 341.672727 292.246848 
L 341.855117 292.019891 
L 341.946313 292.376936 
L 342.128703 292.283519 
L 342.219898 292.427492 
L 342.493483 292.034698 
L 342.675873 292.3418 
L 342.767068 292.243983 
L 342.858264 292.262965 
L 343.223044 291.55392 
L 343.314239 291.57943 
L 343.405434 291.349812 
L 343.496629 291.520972 
L 343.587824 291.461772 
L 343.679019 291.386739 
L 343.770215 291.567959 
L 343.86141 291.43098 
L 343.952605 291.56604 
L 344.0438 291.458653 
L 344.22619 291.916191 
L 344.317385 291.480717 
L 344.40858 291.550129 
L 344.499775 291.233608 
L 344.59097 291.260145 
L 344.682165 291.316341 
L 344.864556 290.563548 
L 345.138141 291.072218 
L 345.229336 291.141317 
L 345.320531 291.416693 
L 345.411726 291.259521 
L 345.502921 291.323888 
L 345.958897 292.421982 
L 346.050092 291.958417 
L 346.232482 292.171172 
L 346.323677 291.973679 
L 346.414872 292.109407 
L 346.506067 291.823099 
L 346.779653 292.20192 
L 346.962043 291.799053 
L 347.418018 292.153083 
L 347.873994 293.307148 
L 348.056384 293.237473 
L 348.238774 293.145772 
L 348.329969 292.790303 
L 348.421164 293.152257 
L 348.51236 293.115608 
L 348.69475 292.933184 
L 348.968335 292.923108 
L 349.697896 291.864867 
L 349.789091 291.826133 
L 349.971481 291.984101 
L 350.153871 291.8744 
L 350.245066 291.83068 
L 350.518652 291.359825 
L 350.609847 291.364867 
L 350.792237 291.206474 
L 350.974627 291.55812 
L 351.430603 291.045748 
L 351.521798 291.067896 
L 351.704188 290.646735 
L 351.795383 290.817588 
L 351.977773 291.57764 
L 352.068968 291.468382 
L 352.342554 290.683798 
L 352.707334 290.261418 
L 352.980919 289.686979 
L 353.072114 289.74836 
L 353.254505 290.091735 
L 353.3457 290.104564 
L 353.52809 289.855322 
L 353.71048 289.842589 
L 353.801675 289.446233 
L 354.257651 290.545135 
L 354.440041 290.204639 
L 354.713626 290.94905 
L 354.804821 290.945787 
L 355.169602 291.386296 
L 355.351992 291.330052 
L 355.534382 291.073997 
L 355.990358 291.506109 
L 356.081553 291.458598 
L 356.263943 291.707065 
L 356.446333 291.564593 
L 356.537528 291.097814 
L 356.719918 291.264696 
L 356.993504 291.062596 
L 357.175894 290.977609 
L 357.267089 291.384417 
L 357.358284 291.263164 
L 357.540674 291.33134 
L 357.631869 291.029715 
L 358.36143 291.874832 
L 358.452625 291.71049 
L 358.54382 292.062992 
L 359.090991 291.528446 
L 359.182186 291.754882 
L 359.364576 291.510298 
L 359.729356 292.009782 
L 360.002942 291.680074 
L 360.094137 291.671234 
L 360.276527 290.894205 
L 360.458917 291.076883 
L 360.641307 290.689692 
L 360.823698 290.652271 
L 361.006088 290.394755 
L 361.097283 290.47969 
L 361.188478 290.060788 
L 361.279673 290.307914 
L 361.370868 290.166705 
L 361.462063 290.318846 
L 361.735649 290.180586 
L 362.191624 290.647458 
L 362.465209 290.304855 
L 362.82999 290.096706 
L 363.01238 290.051908 
L 363.103575 290.145255 
L 363.285965 290.578802 
L 363.559551 290.08831 
L 363.650746 290.362726 
L 363.741941 290.328686 
L 363.833136 290.158235 
L 363.924331 290.229286 
L 364.015526 289.960339 
L 364.197916 290.360751 
L 364.289111 290.371702 
L 364.380306 290.553115 
L 364.745087 289.981096 
L 364.836282 290.206481 
L 364.927477 289.818215 
L 365.109867 290.040381 
L 365.201062 290.095182 
L 365.565843 290.985817 
L 365.657038 291.120124 
L 365.839428 290.847052 
L 365.930623 290.813244 
L 366.204208 291.073743 
L 366.386599 290.928843 
L 366.477794 290.999388 
L 366.751379 290.646163 
L 366.933769 290.874828 
L 367.024964 291.179705 
L 367.116159 290.681657 
L 367.207354 290.712693 
L 367.29855 290.752413 
L 367.389745 290.177804 
L 367.48094 290.251807 
L 367.572135 290.222779 
L 367.84572 290.765024 
L 367.936915 290.866277 
L 368.02811 290.495922 
L 368.119305 290.681192 
L 368.301696 290.565992 
L 368.575281 290.637763 
L 368.757671 290.522883 
L 368.940061 290.780344 
L 369.031256 290.471814 
L 369.122451 290.559234 
L 369.213647 290.274727 
L 369.304842 290.331783 
L 369.487232 290.452943 
L 369.760817 290.577758 
L 369.852012 290.704872 
L 370.034402 290.077359 
L 370.125598 290.203034 
L 370.307988 289.873924 
L 370.672768 290.518318 
L 370.763963 290.826833 
L 370.946353 290.291834 
L 371.128744 290.241945 
L 371.219939 290.269375 
L 371.311134 289.638607 
L 371.402329 289.749139 
L 372.13189 290.738812 
L 372.223085 290.433545 
L 372.31428 290.491767 
L 372.405475 290.698753 
L 372.49667 290.624443 
L 372.770255 291.400967 
L 373.043841 290.834802 
L 373.226231 291.218672 
L 373.499816 291.03747 
L 373.864597 290.675287 
L 374.138182 291.15591 
L 374.229377 291.162495 
L 374.685352 292.035757 
L 374.867743 291.993609 
L 375.050133 292.093363 
L 375.141328 291.67401 
L 375.232523 291.72874 
L 375.688498 290.818079 
L 375.870889 291.300242 
L 375.962084 291.204964 
L 376.053279 291.433796 
L 376.144474 291.104546 
L 376.509254 291.881808 
L 376.600449 292.231095 
L 376.691645 291.875917 
L 376.78284 291.922414 
L 376.96523 291.572528 
L 377.056425 291.220148 
L 377.14762 291.281791 
L 377.238815 291.338242 
L 377.5124 291.0109 
L 377.694791 291.576629 
L 377.968376 290.871385 
L 378.241961 291.527198 
L 378.515546 291.264747 
L 378.880327 292.000241 
L 379.153912 292.019263 
L 379.245107 291.993627 
L 379.518693 292.663215 
L 379.609888 292.221385 
L 379.792278 292.678594 
L 379.974668 292.352776 
L 380.248253 292.928434 
L 380.339448 293.133131 
L 380.613034 292.091396 
L 380.795424 292.168422 
L 380.886619 292.546465 
L 381.342594 291.966316 
L 381.43379 292.280437 
L 381.61618 292.168695 
L 382.254545 292.711213 
L 382.436936 293.124469 
L 382.528131 293.147743 
L 382.710521 292.641531 
L 382.801716 292.610463 
L 382.984106 292.737108 
L 383.075301 292.718776 
L 383.622472 293.83591 
L 383.713667 293.950261 
L 383.896057 293.755311 
L 384.169642 293.944541 
L 384.443228 293.844347 
L 384.990398 295.127135 
L 385.172789 294.598394 
L 385.446374 294.910741 
L 385.537569 294.838464 
L 385.719959 295.319965 
L 385.811154 295.264293 
L 385.902349 295.359168 
L 385.993544 295.242375 
L 386.26713 295.337843 
L 386.540715 295.146356 
L 386.723105 295.48623 
L 386.996691 294.750133 
L 387.179081 294.832508 
L 387.270276 294.822317 
L 387.726251 293.52711 
L 387.908641 293.923407 
L 388.182227 293.866001 
L 388.273422 293.855538 
L 388.364617 293.407906 
L 388.455812 293.635881 
L 388.547007 293.381421 
L 388.638202 293.703301 
L 388.729397 293.482301 
L 388.911788 293.842365 
L 389.094178 293.610433 
L 389.185373 293.887326 
L 389.367763 293.435535 
L 389.550153 293.541468 
L 389.641348 293.496337 
L 389.823739 293.888577 
L 390.006129 293.632822 
L 390.188519 292.993259 
L 390.279714 292.899026 
L 390.462104 293.04697 
L 390.644494 292.707268 
L 390.826885 292.199949 
L 390.91808 292.157538 
L 391.10047 291.567856 
L 391.191665 291.5954 
L 391.556445 292.267195 
L 391.64764 292.089824 
L 391.830031 292.550838 
L 392.012421 292.329975 
L 392.194811 292.825712 
L 392.286006 292.643469 
L 392.468396 292.758533 
L 392.559591 292.764309 
L 392.924372 292.059183 
L 393.015567 292.134065 
L 393.106762 291.801338 
L 393.197957 291.855781 
L 393.289152 292.113552 
L 393.471542 291.391485 
L 393.653933 290.97951 
L 393.836323 291.239085 
L 394.018713 290.919428 
L 394.292298 291.365878 
L 394.383493 291.458535 
L 394.565884 291.224005 
L 394.748274 291.440986 
L 394.930664 291.857253 
L 395.113054 292.039256 
L 395.386639 291.900845 
L 395.477835 292.193627 
L 395.660225 292.04986 
L 395.75142 292.090134 
L 395.842615 292.254864 
L 396.389785 290.530291 
L 396.480981 290.596954 
L 396.572176 290.576592 
L 396.754566 290.802851 
L 396.845761 290.884081 
L 396.936956 290.810539 
L 397.028151 290.90414 
L 397.119346 290.741798 
L 397.575322 291.00839 
L 397.757712 290.921871 
L 397.940102 291.039994 
L 398.122492 290.349997 
L 398.304883 290.130178 
L 398.396078 290.477963 
L 398.396078 290.477963 
" style="fill:none;stroke:#1f77b4;stroke-linecap:square;stroke-width:1.5;"/>
   </g>
   <g id="line2d_19">
    <path clip-path="url(#p923e943b0d)" d="M 106.298182 121.907382 
L 138.763636 195.7848 
L 171.229091 227.674472 
L 203.694545 241.522882 
L 236.16 249.722991 
L 268.625455 257.897973 
L 301.090909 258.20444 
L 333.556364 257.657763 
L 366.021818 253.64759 
L 398.487273 256.953991 
" style="fill:none;stroke:#ff7f0e;stroke-linecap:square;stroke-width:1.5;"/>
   </g>
   <g id="patch_3">
    <path d="M 57.6 307.584 
L 57.6 41.472 
" style="fill:none;stroke:#000000;stroke-linecap:square;stroke-linejoin:miter;stroke-width:0.8;"/>
   </g>
   <g id="patch_4">
    <path d="M 414.72 307.584 
L 414.72 41.472 
" style="fill:none;stroke:#000000;stroke-linecap:square;stroke-linejoin:miter;stroke-width:0.8;"/>
   </g>
   <g id="patch_5">
    <path d="M 57.6 307.584 
L 414.72 307.584 
" style="fill:none;stroke:#000000;stroke-linecap:square;stroke-linejoin:miter;stroke-width:0.8;"/>
   </g>
   <g id="patch_6">
    <path d="M 57.6 41.472 
L 414.72 41.472 
" style="fill:none;stroke:#000000;stroke-linecap:square;stroke-linejoin:miter;stroke-width:0.8;"/>
   </g>
   <g id="legend_1">
    <g id="patch_7">
     <path d="M 325.574688 78.82825 
L 407.72 78.82825 
Q 409.72 78.82825 409.72 76.82825 
L 409.72 48.472 
Q 409.72 46.472 407.72 46.472 
L 325.574688 46.472 
Q 323.574688 46.472 323.574688 48.472 
L 323.574688 76.82825 
Q 323.574688 78.82825 325.574688 78.82825 
z
" style="fill:#ffffff;opacity:0.8;stroke:#cccccc;stroke-linejoin:miter;"/>
    </g>
    <g id="line2d_20">
     <path d="M 327.574688 54.570437 
L 347.574688 54.570437 
" style="fill:none;stroke:#1f77b4;stroke-linecap:square;stroke-width:1.5;"/>
    </g>
    <g id="line2d_21"/>
    <g id="text_20">
     <!-- Train -->
     <defs>
      <path d="M -0.296875 72.90625 
L 61.375 72.90625 
L 61.375 64.59375 
L 35.5 64.59375 
L 35.5 0 
L 25.59375 0 
L 25.59375 64.59375 
L -0.296875 64.59375 
z
" id="DejaVuSans-84"/>
      <path d="M 9.421875 54.6875 
L 18.40625 54.6875 
L 18.40625 0 
L 9.421875 0 
z
M 9.421875 75.984375 
L 18.40625 75.984375 
L 18.40625 64.59375 
L 9.421875 64.59375 
z
" id="DejaVuSans-105"/>
      <path d="M 54.890625 33.015625 
L 54.890625 0 
L 45.90625 0 
L 45.90625 32.71875 
Q 45.90625 40.484375 42.875 44.328125 
Q 39.84375 48.1875 33.796875 48.1875 
Q 26.515625 48.1875 22.3125 43.546875 
Q 18.109375 38.921875 18.109375 30.90625 
L 18.109375 0 
L 9.078125 0 
L 9.078125 54.6875 
L 18.109375 54.6875 
L 18.109375 46.1875 
Q 21.34375 51.125 25.703125 53.5625 
Q 30.078125 56 35.796875 56 
Q 45.21875 56 50.046875 50.171875 
Q 54.890625 44.34375 54.890625 33.015625 
z
" id="DejaVuSans-110"/>
     </defs>
     <g transform="translate(355.574688 58.070437)scale(0.1 -0.1)">
      <use xlink:href="#DejaVuSans-84"/>
      <use x="60.865234" xlink:href="#DejaVuSans-114"/>
      <use x="101.978516" xlink:href="#DejaVuSans-97"/>
      <use x="163.257812" xlink:href="#DejaVuSans-105"/>
      <use x="191.041016" xlink:href="#DejaVuSans-110"/>
     </g>
    </g>
    <g id="line2d_22">
     <path d="M 327.574688 69.248562 
L 347.574688 69.248562 
" style="fill:none;stroke:#ff7f0e;stroke-linecap:square;stroke-width:1.5;"/>
    </g>
    <g id="line2d_23"/>
    <g id="text_21">
     <!-- Validation -->
     <defs>
      <path d="M 28.609375 0 
L 0.78125 72.90625 
L 11.078125 72.90625 
L 34.1875 11.53125 
L 57.328125 72.90625 
L 67.578125 72.90625 
L 39.796875 0 
z
" id="DejaVuSans-86"/>
      <path d="M 9.421875 75.984375 
L 18.40625 75.984375 
L 18.40625 0 
L 9.421875 0 
z
" id="DejaVuSans-108"/>
     </defs>
     <g transform="translate(355.574688 72.748562)scale(0.1 -0.1)">
      <use xlink:href="#DejaVuSans-86"/>
      <use x="68.298828" xlink:href="#DejaVuSans-97"/>
      <use x="129.578125" xlink:href="#DejaVuSans-108"/>
      <use x="157.361328" xlink:href="#DejaVuSans-105"/>
      <use x="185.144531" xlink:href="#DejaVuSans-100"/>
      <use x="248.621094" xlink:href="#DejaVuSans-97"/>
      <use x="309.900391" xlink:href="#DejaVuSans-116"/>
      <use x="349.109375" xlink:href="#DejaVuSans-105"/>
      <use x="376.892578" xlink:href="#DejaVuSans-111"/>
      <use x="438.074219" xlink:href="#DejaVuSans-110"/>
     </g>
    </g>
   </g>
  </g>
 </g>
 <defs>
  <clipPath id="p923e943b0d">
   <rect height="266.112" width="357.12" x="57.6" y="41.472"/>
  </clipPath>
 </defs>
</svg>
